{
	"asset":{
		"generator":"Khronos glTF Blender I/O v4.3.47",
		"version":"2.0"
	},
	"scene":0,
	"scenes":[
		{
			"name":"Scene",
			"nodes":[
				0,
				1,
				2,
				3,
				4,
				5,
				6,
				7,
				8,
				9,
				10,
				11,
				12
			]
		}
	],
	"nodes":[
		{
			"mesh":0,
			"name":"Plane",
			"translation":[
				0,
				0.010214122012257576,
				0.10017184168100357
			]
		},
		{
			"mesh":1,
			"name":"Plane.002",
			"rotation":[
				0,
				0.7071068286895752,
				0,
				0.7071068286895752
			],
			"translation":[
				0,
				0.010214122012257576,
				0.10017184168100357
			]
		},
		{
			"mesh":2,
			"name":"Plane.003",
			"translation":[
				0,
				0.11063504219055176,
				0.10017184168100357
			]
		},
		{
			"mesh":3,
			"name":"Plane.004",
			"rotation":[
				0,
				1,
				0,
				1.6292068494294654e-07
			],
			"translation":[
				0,
				0.11063504219055176,
				-0.10002876073122025
			]
		},
		{
			"mesh":4,
			"name":"Plane.005",
			"rotation":[
				0,
				-0.70710688829422,
				0,
				0.7071066498756409
			],
			"translation":[
				0,
				0.010214120149612427,
				-0.10002876073122025
			]
		},
		{
			"mesh":5,
			"name":"Plane.006",
			"rotation":[
				0,
				1,
				0,
				1.6292068494294654e-07
			],
			"translation":[
				0,
				0.010214120149612427,
				-0.10002876073122025
			]
		},
		{
			"mesh":6,
			"name":"Plane.007",
			"translation":[
				0,
				0,
				0.186611607670784
			]
		},
		{
			"mesh":7,
			"name":"Plane.008",
			"scale":[
				0.13475768268108368,
				0.13475768268108368,
				0.13475768268108368
			],
			"translation":[
				0,
				0,
				0.0010049371048808098
			]
		},
		{
			"mesh":8,
			"name":"Plane.009",
			"scale":[
				0.11042000353336334,
				0.11042000353336334,
				0.11042000353336334
			],
			"translation":[
				0,
				0.12093707919120789,
				-0.0005285711959004402
			]
		},
		{
			"mesh":9,
			"name":"Plane.010",
			"translation":[
				0,
				0.06006244570016861,
				0
			]
		},
		{
			"mesh":10,
			"name":"Circle.002",
			"rotation":[
				0,
				-0.3360441327095032,
				0,
				0.9418462514877319
			],
			"scale":[
				0.009227876551449299,
				0.009227876551449299,
				0.009227876551449299
			],
			"translation":[
				2.3029744625091553e-05,
				0.12145403027534485,
				0.09982453286647797
			]
		},
		{
			"mesh":11,
			"name":"Circle.001",
			"rotation":[
				0,
				-0.7583044171333313,
				0,
				0.651900589466095
			],
			"scale":[
				0.009227876551449299,
				0.009227876551449299,
				0.009227876551449299
			],
			"translation":[
				2.3029744625091553e-05,
				0.12145403027534485,
				-0.09944000840187073
			]
		},
		{
			"mesh":12,
			"name":"Cylinder",
			"scale":[
				0.04339957609772682,
				0.07967711985111237,
				0.04339957609772682
			],
			"translation":[
				0,
				0.08034636825323105,
				0
			]
		}
	],
	"materials":[
		{
			"doubleSided":true,
			"name":"Material.001",
			"pbrMetallicRoughness":{
				"baseColorFactor":[
					0.7990982532501221,
					0.7083767056465149,
					0.07036029547452927,
					1
				],
				"metallicFactor":0,
				"roughnessFactor":0.5
			}
		},
		{
			"doubleSided":true,
			"name":"Material.006",
			"pbrMetallicRoughness":{
				"baseColorFactor":[
					0.7990982532501221,
					0.7083767056465149,
					0.07036029547452927,
					1
				],
				"metallicFactor":0,
				"roughnessFactor":0.5
			}
		},
		{
			"doubleSided":true,
			"name":"Material.004",
			"pbrMetallicRoughness":{
				"baseColorFactor":[
					0.7990982532501221,
					0.7083767056465149,
					0.07036029547452927,
					1
				],
				"metallicFactor":0,
				"roughnessFactor":0.5
			}
		},
		{
			"doubleSided":true,
			"name":"Material.003",
			"pbrMetallicRoughness":{
				"baseColorFactor":[
					0.7990982532501221,
					0.7083767056465149,
					0.07036029547452927,
					1
				],
				"metallicFactor":0,
				"roughnessFactor":0.5
			}
		},
		{
			"doubleSided":true,
			"name":"Material.002",
			"pbrMetallicRoughness":{
				"baseColorFactor":[
					0.7990982532501221,
					0.7083767056465149,
					0.07036029547452927,
					1
				],
				"metallicFactor":0,
				"roughnessFactor":0.5
			}
		},
		{
			"doubleSided":true,
			"name":"Material.009",
			"pbrMetallicRoughness":{
				"baseColorFactor":[
					0.7990982532501221,
					0.7083767056465149,
					0.07036029547452927,
					1
				],
				"metallicFactor":0,
				"roughnessFactor":0.5
			}
		},
		{
			"doubleSided":true,
			"name":"Material.007",
			"pbrMetallicRoughness":{
				"baseColorFactor":[
					0.7990982532501221,
					0.7083767056465149,
					0.07036029547452927,
					1
				],
				"metallicFactor":0,
				"roughnessFactor":0.5
			}
		},
		{
			"doubleSided":true,
			"name":"Material.012",
			"pbrMetallicRoughness":{
				"baseColorFactor":[
					0.7990982532501221,
					0.7083767056465149,
					0.07036029547452927,
					1
				],
				"metallicFactor":0,
				"roughnessFactor":0.5
			}
		},
		{
			"doubleSided":true,
			"name":"Material.011",
			"pbrMetallicRoughness":{
				"baseColorFactor":[
					0.7990982532501221,
					0.7083767056465149,
					0.07036029547452927,
					1
				],
				"metallicFactor":0,
				"roughnessFactor":0.5
			}
		},
		{
			"doubleSided":true,
			"name":"Material.008",
			"pbrMetallicRoughness":{
				"baseColorFactor":[
					0.7990982532501221,
					0.7083767056465149,
					0.07036029547452927,
					1
				],
				"metallicFactor":0,
				"roughnessFactor":0.5
			}
		},
		{
			"doubleSided":true,
			"name":"Material.005",
			"pbrMetallicRoughness":{
				"baseColorFactor":[
					0.7990982532501221,
					0.7083767056465149,
					0.07036029547452927,
					1
				],
				"metallicFactor":0,
				"roughnessFactor":0.5
			}
		},
		{
			"doubleSided":true,
			"name":"Material.010",
			"pbrMetallicRoughness":{
				"baseColorFactor":[
					0.7990982532501221,
					0.7083767056465149,
					0.07036029547452927,
					1
				],
				"metallicFactor":0,
				"roughnessFactor":0.5
			}
		},
		{
			"doubleSided":true,
			"name":"Material.013",
			"pbrMetallicRoughness":{
				"baseColorFactor":[
					0.7990982532501221,
					0.7083767056465149,
					0.07036029547452927,
					1
				],
				"metallicFactor":0,
				"roughnessFactor":0.5
			}
		}
	],
	"meshes":[
		{
			"name":"Plane",
			"primitives":[
				{
					"attributes":{
						"POSITION":0,
						"NORMAL":1,
						"TEXCOORD_0":2
					},
					"indices":3,
					"material":0
				}
			]
		},
		{
			"name":"Plane.001",
			"primitives":[
				{
					"attributes":{
						"POSITION":4,
						"NORMAL":5,
						"TEXCOORD_0":6
					},
					"indices":3,
					"material":1
				}
			]
		},
		{
			"name":"Plane.003",
			"primitives":[
				{
					"attributes":{
						"POSITION":7,
						"NORMAL":8,
						"TEXCOORD_0":9
					},
					"indices":10,
					"material":2
				}
			]
		},
		{
			"name":"Plane.002",
			"primitives":[
				{
					"attributes":{
						"POSITION":11,
						"NORMAL":12,
						"TEXCOORD_0":13
					},
					"indices":10,
					"material":3
				}
			]
		},
		{
			"name":"Plane.004",
			"primitives":[
				{
					"attributes":{
						"POSITION":14,
						"NORMAL":15,
						"TEXCOORD_0":16
					},
					"indices":3,
					"material":4
				}
			]
		},
		{
			"name":"Plane.005",
			"primitives":[
				{
					"attributes":{
						"POSITION":17,
						"NORMAL":18,
						"TEXCOORD_0":19
					},
					"indices":3,
					"material":5
				}
			]
		},
		{
			"name":"Plane.007",
			"primitives":[
				{
					"attributes":{
						"POSITION":20,
						"NORMAL":21,
						"TEXCOORD_0":22
					},
					"indices":23,
					"material":6
				}
			]
		},
		{
			"name":"Plane.004",
			"primitives":[
				{
					"attributes":{
						"POSITION":24,
						"NORMAL":25,
						"TEXCOORD_0":26
					},
					"indices":27,
					"material":7
				}
			]
		},
		{
			"name":"Plane.005",
			"primitives":[
				{
					"attributes":{
						"POSITION":28,
						"NORMAL":29,
						"TEXCOORD_0":30
					},
					"indices":31,
					"material":8
				}
			]
		},
		{
			"name":"Plane.010",
			"primitives":[
				{
					"attributes":{
						"POSITION":32,
						"NORMAL":33,
						"TEXCOORD_0":34
					},
					"indices":35,
					"material":9
				}
			]
		},
		{
			"name":"Circle.003",
			"primitives":[
				{
					"attributes":{
						"POSITION":36,
						"NORMAL":37,
						"TEXCOORD_0":38
					},
					"indices":39,
					"material":10
				}
			]
		},
		{
			"name":"Circle.005",
			"primitives":[
				{
					"attributes":{
						"POSITION":40,
						"NORMAL":41,
						"TEXCOORD_0":42
					},
					"indices":39,
					"material":11
				}
			]
		},
		{
			"name":"Cylinder",
			"primitives":[
				{
					"attributes":{
						"POSITION":43,
						"NORMAL":44,
						"TEXCOORD_0":45
					},
					"indices":46,
					"material":12
				}
			]
		}
	],
	"accessors":[
		{
			"bufferView":0,
			"componentType":5126,
			"count":3600,
			"max":[
				0.11014070361852646,
				0.1103162169456482,
				0.010875972919166088
			],
			"min":[
				-0.010199532844126225,
				-0.010000001639127731,
				-0.11023260653018951
			],
			"type":"VEC3"
		},
		{
			"bufferView":1,
			"componentType":5126,
			"count":3600,
			"type":"VEC3"
		},
		{
			"bufferView":2,
			"componentType":5126,
			"count":3600,
			"type":"VEC2"
		},
		{
			"bufferView":3,
			"componentType":5123,
			"count":5400,
			"type":"SCALAR"
		},
		{
			"bufferView":4,
			"componentType":5126,
			"count":3600,
			"max":[
				0.11014070361852646,
				0.1103162169456482,
				0.010875972919166088
			],
			"min":[
				-0.010199532844126225,
				-0.010000001639127731,
				-0.11023260653018951
			],
			"type":"VEC3"
		},
		{
			"bufferView":5,
			"componentType":5126,
			"count":3600,
			"type":"VEC3"
		},
		{
			"bufferView":6,
			"componentType":5126,
			"count":3600,
			"type":"VEC2"
		},
		{
			"bufferView":7,
			"componentType":5126,
			"count":1200,
			"max":[
				0.10901147872209549,
				0.00896514393389225,
				0.010000014677643776
			],
			"min":[
				-0.10782516002655029,
				-0.10988090932369232,
				-0.010000000707805157
			],
			"type":"VEC3"
		},
		{
			"bufferView":8,
			"componentType":5126,
			"count":1200,
			"type":"VEC3"
		},
		{
			"bufferView":9,
			"componentType":5126,
			"count":1200,
			"type":"VEC2"
		},
		{
			"bufferView":10,
			"componentType":5123,
			"count":1800,
			"type":"SCALAR"
		},
		{
			"bufferView":11,
			"componentType":5126,
			"count":1200,
			"max":[
				0.10901147872209549,
				0.00896514393389225,
				0.010000014677643776
			],
			"min":[
				-0.10782516002655029,
				-0.10988090932369232,
				-0.010000000707805157
			],
			"type":"VEC3"
		},
		{
			"bufferView":12,
			"componentType":5126,
			"count":1200,
			"type":"VEC3"
		},
		{
			"bufferView":13,
			"componentType":5126,
			"count":1200,
			"type":"VEC2"
		},
		{
			"bufferView":14,
			"componentType":5126,
			"count":3600,
			"max":[
				0.11014070361852646,
				0.1103162169456482,
				0.010875972919166088
			],
			"min":[
				-0.010199532844126225,
				-0.010000001639127731,
				-0.11023260653018951
			],
			"type":"VEC3"
		},
		{
			"bufferView":15,
			"componentType":5126,
			"count":3600,
			"type":"VEC3"
		},
		{
			"bufferView":16,
			"componentType":5126,
			"count":3600,
			"type":"VEC2"
		},
		{
			"bufferView":17,
			"componentType":5126,
			"count":3600,
			"max":[
				0.11014070361852646,
				0.1103162169456482,
				0.010875972919166088
			],
			"min":[
				-0.010199532844126225,
				-0.010000001639127731,
				-0.11023260653018951
			],
			"type":"VEC3"
		},
		{
			"bufferView":18,
			"componentType":5126,
			"count":3600,
			"type":"VEC3"
		},
		{
			"bufferView":19,
			"componentType":5126,
			"count":3600,
			"type":"VEC2"
		},
		{
			"bufferView":20,
			"componentType":5126,
			"count":48,
			"max":[
				0.010591489262878895,
				0.11068855226039886,
				-0.17671041190624237
			],
			"min":[
				-0.00999985821545124,
				-5.347516344045289e-05,
				-0.19671043753623962
			],
			"type":"VEC3"
		},
		{
			"bufferView":21,
			"componentType":5126,
			"count":48,
			"type":"VEC3"
		},
		{
			"bufferView":22,
			"componentType":5126,
			"count":48,
			"type":"VEC2"
		},
		{
			"bufferView":23,
			"componentType":5123,
			"count":72,
			"type":"SCALAR"
		},
		{
			"bufferView":24,
			"componentType":5126,
			"count":4,
			"max":[
				1,
				0,
				1
			],
			"min":[
				-1,
				0,
				-1
			],
			"type":"VEC3"
		},
		{
			"bufferView":25,
			"componentType":5126,
			"count":4,
			"type":"VEC3"
		},
		{
			"bufferView":26,
			"componentType":5126,
			"count":4,
			"type":"VEC2"
		},
		{
			"bufferView":27,
			"componentType":5123,
			"count":6,
			"type":"SCALAR"
		},
		{
			"bufferView":28,
			"componentType":5126,
			"count":52,
			"max":[
				1,
				0,
				1
			],
			"min":[
				-1,
				0,
				-1
			],
			"type":"VEC3"
		},
		{
			"bufferView":29,
			"componentType":5126,
			"count":52,
			"type":"VEC3"
		},
		{
			"bufferView":30,
			"componentType":5126,
			"count":52,
			"type":"VEC2"
		},
		{
			"bufferView":31,
			"componentType":5123,
			"count":150,
			"type":"SCALAR"
		},
		{
			"bufferView":32,
			"componentType":5126,
			"count":240,
			"max":[
				0.010000001639127731,
				0.05932566896080971,
				0.1038406491279602
			],
			"min":[
				-0.010000001639127731,
				-0.05829911679029465,
				-0.10391715168952942
			],
			"type":"VEC3"
		},
		{
			"bufferView":33,
			"componentType":5126,
			"count":240,
			"type":"VEC3"
		},
		{
			"bufferView":34,
			"componentType":5126,
			"count":240,
			"type":"VEC2"
		},
		{
			"bufferView":35,
			"componentType":5123,
			"count":504,
			"type":"SCALAR"
		},
		{
			"bufferView":36,
			"componentType":5126,
			"count":38,
			"max":[
				0.8660253882408142,
				0.5058329105377197,
				1
			],
			"min":[
				-0.8660253882408142,
				-0.18535569310188293,
				-1
			],
			"type":"VEC3"
		},
		{
			"bufferView":37,
			"componentType":5126,
			"count":38,
			"type":"VEC3"
		},
		{
			"bufferView":38,
			"componentType":5126,
			"count":38,
			"type":"VEC2"
		},
		{
			"bufferView":39,
			"componentType":5123,
			"count":72,
			"type":"SCALAR"
		},
		{
			"bufferView":40,
			"componentType":5126,
			"count":38,
			"max":[
				0.8660253882408142,
				0.5058329105377197,
				1
			],
			"min":[
				-0.8660253882408142,
				-0.18535569310188293,
				-1
			],
			"type":"VEC3"
		},
		{
			"bufferView":41,
			"componentType":5126,
			"count":38,
			"type":"VEC3"
		},
		{
			"bufferView":42,
			"componentType":5126,
			"count":38,
			"type":"VEC2"
		},
		{
			"bufferView":43,
			"componentType":5126,
			"count":1428,
			"max":[
				0.9999361634254456,
				1,
				0.9997445940971375
			],
			"min":[
				-0.9999361634254456,
				-1,
				-1
			],
			"type":"VEC3"
		},
		{
			"bufferView":44,
			"componentType":5126,
			"count":1428,
			"type":"VEC3"
		},
		{
			"bufferView":45,
			"componentType":5126,
			"count":1428,
			"type":"VEC2"
		},
		{
			"bufferView":46,
			"componentType":5123,
			"count":3420,
			"type":"SCALAR"
		}
	],
	"bufferViews":[
		{
			"buffer":0,
			"byteLength":43200,
			"byteOffset":0,
			"target":34962
		},
		{
			"buffer":0,
			"byteLength":43200,
			"byteOffset":43200,
			"target":34962
		},
		{
			"buffer":0,
			"byteLength":28800,
			"byteOffset":86400,
			"target":34962
		},
		{
			"buffer":0,
			"byteLength":10800,
			"byteOffset":115200,
			"target":34963
		},
		{
			"buffer":0,
			"byteLength":43200,
			"byteOffset":126000,
			"target":34962
		},
		{
			"buffer":0,
			"byteLength":43200,
			"byteOffset":169200,
			"target":34962
		},
		{
			"buffer":0,
			"byteLength":28800,
			"byteOffset":212400,
			"target":34962
		},
		{
			"buffer":0,
			"byteLength":14400,
			"byteOffset":241200,
			"target":34962
		},
		{
			"buffer":0,
			"byteLength":14400,
			"byteOffset":255600,
			"target":34962
		},
		{
			"buffer":0,
			"byteLength":9600,
			"byteOffset":270000,
			"target":34962
		},
		{
			"buffer":0,
			"byteLength":3600,
			"byteOffset":279600,
			"target":34963
		},
		{
			"buffer":0,
			"byteLength":14400,
			"byteOffset":283200,
			"target":34962
		},
		{
			"buffer":0,
			"byteLength":14400,
			"byteOffset":297600,
			"target":34962
		},
		{
			"buffer":0,
			"byteLength":9600,
			"byteOffset":312000,
			"target":34962
		},
		{
			"buffer":0,
			"byteLength":43200,
			"byteOffset":321600,
			"target":34962
		},
		{
			"buffer":0,
			"byteLength":43200,
			"byteOffset":364800,
			"target":34962
		},
		{
			"buffer":0,
			"byteLength":28800,
			"byteOffset":408000,
			"target":34962
		},
		{
			"buffer":0,
			"byteLength":43200,
			"byteOffset":436800,
			"target":34962
		},
		{
			"buffer":0,
			"byteLength":43200,
			"byteOffset":480000,
			"target":34962
		},
		{
			"buffer":0,
			"byteLength":28800,
			"byteOffset":523200,
			"target":34962
		},
		{
			"buffer":0,
			"byteLength":576,
			"byteOffset":552000,
			"target":34962
		},
		{
			"buffer":0,
			"byteLength":576,
			"byteOffset":552576,
			"target":34962
		},
		{
			"buffer":0,
			"byteLength":384,
			"byteOffset":553152,
			"target":34962
		},
		{
			"buffer":0,
			"byteLength":144,
			"byteOffset":553536,
			"target":34963
		},
		{
			"buffer":0,
			"byteLength":48,
			"byteOffset":553680,
			"target":34962
		},
		{
			"buffer":0,
			"byteLength":48,
			"byteOffset":553728,
			"target":34962
		},
		{
			"buffer":0,
			"byteLength":32,
			"byteOffset":553776,
			"target":34962
		},
		{
			"buffer":0,
			"byteLength":12,
			"byteOffset":553808,
			"target":34963
		},
		{
			"buffer":0,
			"byteLength":624,
			"byteOffset":553820,
			"target":34962
		},
		{
			"buffer":0,
			"byteLength":624,
			"byteOffset":554444,
			"target":34962
		},
		{
			"buffer":0,
			"byteLength":416,
			"byteOffset":555068,
			"target":34962
		},
		{
			"buffer":0,
			"byteLength":300,
			"byteOffset":555484,
			"target":34963
		},
		{
			"buffer":0,
			"byteLength":2880,
			"byteOffset":555784,
			"target":34962
		},
		{
			"buffer":0,
			"byteLength":2880,
			"byteOffset":558664,
			"target":34962
		},
		{
			"buffer":0,
			"byteLength":1920,
			"byteOffset":561544,
			"target":34962
		},
		{
			"buffer":0,
			"byteLength":1008,
			"byteOffset":563464,
			"target":34963
		},
		{
			"buffer":0,
			"byteLength":456,
			"byteOffset":564472,
			"target":34962
		},
		{
			"buffer":0,
			"byteLength":456,
			"byteOffset":564928,
			"target":34962
		},
		{
			"buffer":0,
			"byteLength":304,
			"byteOffset":565384,
			"target":34962
		},
		{
			"buffer":0,
			"byteLength":144,
			"byteOffset":565688,
			"target":34963
		},
		{
			"buffer":0,
			"byteLength":456,
			"byteOffset":565832,
			"target":34962
		},
		{
			"buffer":0,
			"byteLength":456,
			"byteOffset":566288,
			"target":34962
		},
		{
			"buffer":0,
			"byteLength":304,
			"byteOffset":566744,
			"target":34962
		},
		{
			"buffer":0,
			"byteLength":17136,
			"byteOffset":567048,
			"target":34962
		},
		{
			"buffer":0,
			"byteLength":17136,
			"byteOffset":584184,
			"target":34962
		},
		{
			"buffer":0,
			"byteLength":11424,
			"byteOffset":601320,
			"target":34962
		},
		{
			"buffer":0,
			"byteLength":6840,
			"byteOffset":612744,
			"target":34963
		}
	],
	"buffers":[
		{
			"byteLength":619584,
			"uri":"assets.bin"
		}
	]
}
