{
	"asset":{
		"generator":"Khronos glTF Blender I/O v4.3.47",
		"version":"2.0"
	},
	"scene":0,
	"scenes":[
		{
			"name":"Scene",
			"nodes":[
				0
			]
		}
	],
	"nodes":[
		{
			"mesh":0,
			"name":"Sphere"
		}
	],
	"materials":[
		{
			"doubleSided":true,
			"name":"Material.001",
			"pbrMetallicRoughness":{
				"baseColorTexture":{
					"index":0
				},
				"metallicFactor":0,
				"roughnessFactor":0.5
			}
		}
	],
	"meshes":[
		{
			"name":"Sphere",
			"primitives":[
				{
					"attributes":{
						"POSITION":0,
						"NORMAL":1,
						"TEXCOORD_0":2
					},
					"indices":3,
					"material":0
				}
			]
		}
	],
	"textures":[
		{
			"sampler":0,
			"source":0
		}
	],
	"images":[
		{
			"mimeType":"image/jpeg",
			"name":"earth map.jpeg",
			"uri":"earth%20map.jpeg"
		}
	],
	"accessors":[
		{
			"bufferView":0,
			"componentType":5126,
			"count":2020,
			"max":[
				0.9999997019767761,
				0.9807853102684021,
				0.9999993443489075
			],
			"min":[
				-0.9999990463256836,
				-0.9807853102684021,
				-1
			],
			"type":"VEC3"
		},
		{
			"bufferView":1,
			"componentType":5126,
			"count":2020,
			"type":"VEC3"
		},
		{
			"bufferView":2,
			"componentType":5126,
			"count":2020,
			"type":"VEC2"
		},
		{
			"bufferView":3,
			"componentType":5123,
			"count":3264,
			"type":"SCALAR"
		}
	],
	"bufferViews":[
		{
			"buffer":0,
			"byteLength":24240,
			"byteOffset":0,
			"target":34962
		},
		{
			"buffer":0,
			"byteLength":24240,
			"byteOffset":24240,
			"target":34962
		},
		{
			"buffer":0,
			"byteLength":16160,
			"byteOffset":48480,
			"target":34962
		},
		{
			"buffer":0,
			"byteLength":6528,
			"byteOffset":64640,
			"target":34963
		}
	],
	"samplers":[
		{
			"magFilter":9729,
			"minFilter":9987
		}
	],
	"buffers":[
		{
			"byteLength":71168,
			"uri":"newGlobe.bin"
		}
	]
}
