{
	"asset":{
		"generator":"Khronos glTF Blender I/O v4.3.47",
		"version":"2.0"
	},
	"scene":0,
	"scenes":[
		{
			"name":"Scene",
			"nodes":[
				0,
				1,
				2
			]
		}
	],
	"nodes":[
		{
			"mesh":0,
			"name":"B\u00e9zierCurve",
			"scale":[
				0.6090661287307739,
				0.6090661287307739,
				0.6090661287307739
			]
		},
		{
			"mesh":1,
			"name":"Circle",
			"rotation":[
				0,
				0,
				-0.7071066498756409,
				0.70710688829422
			],
			"scale":[
				-0.1549021601676941,
				-0.1549021601676941,
				-0.1549021601676941
			],
			"translation":[
				-0.35456591844558716,
				-0.0006110575050115585,
				8.525943849235773e-05
			]
		},
		{
			"mesh":2,
			"name":"Circle.001",
			"rotation":[
				0,
				0,
				-0.7071066498756409,
				0.70710688829422
			],
			"scale":[
				-0.15272380411624908,
				-0.15272380411624908,
				-0.15272380411624908
			],
			"translation":[
				0.2850608825683594,
				-0.0006110575050115585,
				-0.00021091103553771973
			]
		}
	],
	"materials":[
		{
			"doubleSided":true,
			"name":"Material.003",
			"pbrMetallicRoughness":{
				"baseColorFactor":[
					0.1470257192850113,
					0.2462013214826584,
					1,
					1
				],
				"metallicFactor":0,
				"roughnessFactor":0.5
			}
		},
		{
			"doubleSided":true,
			"name":"Material.004",
			"pbrMetallicRoughness":{
				"baseColorFactor":[
					0.1470257192850113,
					0.2462013214826584,
					1,
					1
				],
				"metallicFactor":0,
				"roughnessFactor":0.5
			}
		},
		{
			"doubleSided":true,
			"name":"Material.002",
			"pbrMetallicRoughness":{
				"baseColorFactor":[
					0.1470257192850113,
					0.2462013214826584,
					1,
					1
				],
				"metallicFactor":0,
				"roughnessFactor":0.5
			}
		}
	],
	"meshes":[
		{
			"name":"B\u00e9zierCurve",
			"primitives":[
				{
					"attributes":{
						"POSITION":0,
						"NORMAL":1,
						"TEXCOORD_0":2
					},
					"indices":3,
					"material":0
				}
			]
		},
		{
			"name":"Circle",
			"primitives":[
				{
					"attributes":{
						"POSITION":4,
						"NORMAL":5,
						"TEXCOORD_0":6
					},
					"indices":7,
					"material":1
				}
			]
		},
		{
			"name":"Circle.013",
			"primitives":[
				{
					"attributes":{
						"POSITION":8,
						"NORMAL":9,
						"TEXCOORD_0":10
					},
					"indices":7,
					"material":2
				}
			]
		}
	],
	"accessors":[
		{
			"bufferView":0,
			"componentType":5126,
			"count":273,
			"max":[
				1.0000001192092896,
				0.18000000715255737,
				0.18000002205371857
			],
			"min":[
				-1.1409518718719482,
				-0.18082842230796814,
				-0.1800522655248642
			],
			"type":"VEC3"
		},
		{
			"bufferView":1,
			"componentType":5126,
			"count":273,
			"type":"VEC3"
		},
		{
			"bufferView":2,
			"componentType":5126,
			"count":273,
			"type":"VEC2"
		},
		{
			"bufferView":3,
			"componentType":5123,
			"count":1440,
			"type":"SCALAR"
		},
		{
			"bufferView":4,
			"componentType":5126,
			"count":1136,
			"max":[
				1,
				0.06093659996986389,
				1.0000076293945312
			],
			"min":[
				-1,
				-0.2998248338699341,
				-0.9999923706054688
			],
			"type":"VEC3"
		},
		{
			"bufferView":5,
			"componentType":5126,
			"count":1136,
			"type":"VEC3"
		},
		{
			"bufferView":6,
			"componentType":5126,
			"count":1136,
			"type":"VEC2"
		},
		{
			"bufferView":7,
			"componentType":5123,
			"count":2880,
			"type":"SCALAR"
		},
		{
			"bufferView":8,
			"componentType":5126,
			"count":1136,
			"max":[
				1,
				0.06093659996986389,
				1.0000076293945312
			],
			"min":[
				-1,
				-0.2998248338699341,
				-0.9999923706054688
			],
			"type":"VEC3"
		},
		{
			"bufferView":9,
			"componentType":5126,
			"count":1136,
			"type":"VEC3"
		},
		{
			"bufferView":10,
			"componentType":5126,
			"count":1136,
			"type":"VEC2"
		}
	],
	"bufferViews":[
		{
			"buffer":0,
			"byteLength":3276,
			"byteOffset":0,
			"target":34962
		},
		{
			"buffer":0,
			"byteLength":3276,
			"byteOffset":3276,
			"target":34962
		},
		{
			"buffer":0,
			"byteLength":2184,
			"byteOffset":6552,
			"target":34962
		},
		{
			"buffer":0,
			"byteLength":2880,
			"byteOffset":8736,
			"target":34963
		},
		{
			"buffer":0,
			"byteLength":13632,
			"byteOffset":11616,
			"target":34962
		},
		{
			"buffer":0,
			"byteLength":13632,
			"byteOffset":25248,
			"target":34962
		},
		{
			"buffer":0,
			"byteLength":9088,
			"byteOffset":38880,
			"target":34962
		},
		{
			"buffer":0,
			"byteLength":5760,
			"byteOffset":47968,
			"target":34963
		},
		{
			"buffer":0,
			"byteLength":13632,
			"byteOffset":53728,
			"target":34962
		},
		{
			"buffer":0,
			"byteLength":13632,
			"byteOffset":67360,
			"target":34962
		},
		{
			"buffer":0,
			"byteLength":9088,
			"byteOffset":80992,
			"target":34962
		}
	],
	"buffers":[
		{
			"byteLength":90080,
			"uri":"pipeline.bin"
		}
	]
}
