{
	"asset":{
		"generator":"Khronos glTF Blender I/O v4.3.47",
		"version":"2.0"
	},
	"scene":0,
	"scenes":[
		{
			"name":"Scene",
			"nodes":[
				0
			]
		}
	],
	"nodes":[
		{
			"mesh":0,
			"name":"Cube"
		}
	],
	"materials":[
		{
			"doubleSided":true,
			"name":"Material.001",
			"pbrMetallicRoughness":{
				"baseColorFactor":[
					0.800039529800415,
					0.07055383175611496,
					0.07409843057394028,
					1
				],
				"metallicFactor":0,
				"roughnessFactor":0.5
			}
		}
	],
	"meshes":[
		{
			"name":"Cube.001",
			"primitives":[
				{
					"attributes":{
						"POSITION":0,
						"NORMAL":1,
						"TEXCOORD_0":2
					},
					"indices":3,
					"material":0
				}
			]
		}
	],
	"accessors":[
		{
			"bufferView":0,
			"componentType":5126,
			"count":1386,
			"max":[
				1.0991164445877075,
				1.5668911933898926,
				5.024590492248535
			],
			"min":[
				-1.1131246089935303,
				-0.38478362560272217,
				-4.985097408294678
			],
			"type":"VEC3"
		},
		{
			"bufferView":1,
			"componentType":5126,
			"count":1386,
			"type":"VEC3"
		},
		{
			"bufferView":2,
			"componentType":5126,
			"count":1386,
			"type":"VEC2"
		},
		{
			"bufferView":3,
			"componentType":5123,
			"count":2520,
			"type":"SCALAR"
		}
	],
	"bufferViews":[
		{
			"buffer":0,
			"byteLength":16632,
			"byteOffset":0,
			"target":34962
		},
		{
			"buffer":0,
			"byteLength":16632,
			"byteOffset":16632,
			"target":34962
		},
		{
			"buffer":0,
			"byteLength":11088,
			"byteOffset":33264,
			"target":34962
		},
		{
			"buffer":0,
			"byteLength":5040,
			"byteOffset":44352,
			"target":34963
		}
	],
	"buffers":[
		{
			"byteLength":49392,
			"uri":"boat.bin"
		}
	]
}
