{
	"asset":{
		"generator":"Khronos glTF Blender I/O v4.3.47",
		"version":"2.0"
	},
	"scene":0,
	"scenes":[
		{
			"name":"Scene",
			"nodes":[
				0,
				1
			]
		}
	],
	"nodes":[
		{
			"mesh":0,
			"name":"Cylinder",
			"rotation":[
				-0.7071066498756409,
				0.70710688829422,
				0,
				4.750301130229673e-08
			],
			"scale":[
				-1,
				-0.15367698669433594,
				-1
			],
			"translation":[
				0.015724387019872665,
				2.1925315856933594,
				-0.006563007831573486
			]
		},
		{
			"mesh":1,
			"name":"Cylinder.001",
			"rotation":[
				1,
				0,
				0,
				0
			],
			"scale":[
				1.3685413599014282,
				0.13574042916297913,
				1.260825514793396
			],
			"translation":[
				0.01701127551496029,
				-0.0029926300048828125,
				-0.007875343784689903
			]
		}
	],
	"materials":[
		{
			"doubleSided":true,
			"name":"Material.001",
			"pbrMetallicRoughness":{
				"baseColorFactor":[
					0.2663533389568329,
					0.799103856086731,
					0.37123802304267883,
					1
				],
				"metallicFactor":0,
				"roughnessFactor":0.5
			}
		},
		{
			"doubleSided":true,
			"name":"Material.002",
			"pbrMetallicRoughness":{
				"baseColorFactor":[
					0.2663533389568329,
					0.799103856086731,
					0.37123802304267883,
					1
				],
				"metallicFactor":0,
				"roughnessFactor":0.5
			}
		}
	],
	"meshes":[
		{
			"name":"Cylinder.001",
			"primitives":[
				{
					"attributes":{
						"POSITION":0,
						"NORMAL":1,
						"TEXCOORD_0":2
					},
					"indices":3,
					"material":0
				}
			]
		},
		{
			"name":"Cylinder.002",
			"primitives":[
				{
					"attributes":{
						"POSITION":4,
						"NORMAL":5,
						"TEXCOORD_0":6
					},
					"indices":7,
					"material":1
				}
			]
		}
	],
	"accessors":[
		{
			"bufferView":0,
			"componentType":5126,
			"count":688,
			"max":[
				0.9999997019767761,
				0.9999999403953552,
				0.9999999403953552
			],
			"min":[
				-2.1820366382598877,
				-0.9999999403953552,
				-0.9999999403953552
			],
			"type":"VEC3"
		},
		{
			"bufferView":1,
			"componentType":5126,
			"count":688,
			"type":"VEC3"
		},
		{
			"bufferView":2,
			"componentType":5126,
			"count":688,
			"type":"VEC2"
		},
		{
			"bufferView":3,
			"componentType":5123,
			"count":1536,
			"type":"SCALAR"
		},
		{
			"bufferView":4,
			"componentType":5126,
			"count":66,
			"max":[
				0.9999999403953552,
				1,
				1.0000001192092896
			],
			"min":[
				-0.9999999403953552,
				-1,
				-1.0000001192092896
			],
			"type":"VEC3"
		},
		{
			"bufferView":5,
			"componentType":5126,
			"count":66,
			"type":"VEC3"
		},
		{
			"bufferView":6,
			"componentType":5126,
			"count":66,
			"type":"VEC2"
		},
		{
			"bufferView":7,
			"componentType":5123,
			"count":192,
			"type":"SCALAR"
		}
	],
	"bufferViews":[
		{
			"buffer":0,
			"byteLength":8256,
			"byteOffset":0,
			"target":34962
		},
		{
			"buffer":0,
			"byteLength":8256,
			"byteOffset":8256,
			"target":34962
		},
		{
			"buffer":0,
			"byteLength":5504,
			"byteOffset":16512,
			"target":34962
		},
		{
			"buffer":0,
			"byteLength":3072,
			"byteOffset":22016,
			"target":34963
		},
		{
			"buffer":0,
			"byteLength":792,
			"byteOffset":25088,
			"target":34962
		},
		{
			"buffer":0,
			"byteLength":792,
			"byteOffset":25880,
			"target":34962
		},
		{
			"buffer":0,
			"byteLength":528,
			"byteOffset":26672,
			"target":34962
		},
		{
			"buffer":0,
			"byteLength":384,
			"byteOffset":27200,
			"target":34963
		}
	],
	"buffers":[
		{
			"byteLength":27584,
			"uri":"pointsOfInterest.bin"
		}
	]
}
